<svg width="66" height="28" viewBox="0 0 66 28" fill="none" xmlns="http://www.w3.org/2000/svg">
<g clip-path="url(#clip0_1805_185)">
<path d="M22.2499 18.0492L24.3305 20.8671L26.4804 18.0679H28.2029V18.9329L25.5087 22.4522L28.2029 26.2151V18.0679H33.0658C33.9855 18.0679 35.3341 18.5702 35.3341 20.8228C35.3341 23.9829 33.5596 24.0204 32.5879 24.0204H30.0626V27.08H26.4631L24.2641 24.0817L22.0117 27.0579H14.8546V18.0475H22.2499V18.0492V18.0492ZM44.2815 18.0492H50.415V19.9919H46.1585V21.6792H50.2966V23.3887H46.1585V25.1731H50.415V27.0596H44.2815V18.0492V18.0492ZM38.099 27.0817H36.222V18.0696H41.1008C42.0234 18.0696 43.3532 18.5532 43.3532 20.4823C43.3532 21.572 43.0803 22.3739 42.0566 22.9783C42.9431 23.0992 43.2853 23.7837 43.2853 25.2309L43.3532 27.0817H41.5267L41.4762 25.4301C41.4603 24.6674 41.2033 23.9029 40.5564 23.9029H38.099V27.0817V27.0817ZM62.1939 21.5617C64.5026 21.698 64.6932 23.0584 64.6932 24.5056C64.6932 26.1946 63.5164 27.1004 62.2877 27.1004H58.3475V25.1713H61.4185C61.9398 25.1713 62.7151 25.1713 62.7151 24.303C62.7151 23.891 62.5779 23.6305 62.0235 23.5589C61.5927 23.5096 61.1608 23.4744 60.7284 23.4534C58.6449 23.3887 58.1612 22.1679 58.1612 20.6798C58.1612 18.9907 59.1676 18.0662 60.3963 18.0662H64.3365V19.9987H61.4532C60.7977 20.0089 60.0887 19.9068 60.0887 20.7836C60.0887 21.3353 60.4396 21.446 60.8814 21.4987C61.0345 21.5004 62.0582 21.5617 62.1939 21.5617V21.5617ZM55.1652 21.5617C57.4725 21.698 57.6645 23.0584 57.6645 24.5056C57.6645 26.1946 56.4864 27.1004 55.2591 27.1004H51.3174V25.1713H54.3885C54.9082 25.1713 55.6865 25.1713 55.6865 24.303C55.6865 23.891 55.5493 23.6305 54.9949 23.5589C54.7465 23.5181 53.834 23.4568 53.6997 23.4534C51.6163 23.3887 51.1326 22.1679 51.1326 20.6798C51.1326 18.9907 52.1389 18.0662 53.3662 18.0662H57.3079V19.9987H54.4245C53.7676 20.0089 53.0601 19.9068 53.0601 20.7836C53.0601 21.3353 53.4095 21.446 53.8542 21.4987C54.0058 21.5004 55.0295 21.5617 55.1652 21.5617V21.5617ZM30.438 11.591H28.561V2.57894H33.4397C34.3609 2.57894 35.6936 3.06249 35.6936 4.99159C35.6936 6.07958 35.4207 6.88493 34.397 7.48767C35.2835 7.60856 35.6257 8.29302 35.6257 9.74027L35.6936 11.591H33.8685L33.8166 9.94118C33.7992 9.17669 33.5451 8.41391 32.8954 8.41391H30.4394V11.591H30.438V11.591ZM36.6494 11.591H38.5249V2.56873H36.6494V11.591ZM21.3533 2.57894H27.4853V4.51996H23.2332V6.21068H27.3684V7.92185H23.2332V9.70111H27.4853V11.591H21.3533V2.57894V2.57894ZM7.65846 11.591H11.437V4.90305L13.9435 11.591H15.6501L18.2158 5.01373V11.591H20.0914V2.57894H17.0983L14.7954 8.62503L12.5011 2.57894H9.55855V11.259L6.28247 2.57894H3.80195L0.458008 11.591H2.43752L3.16955 9.58022H6.91343L7.65846 11.591V11.591ZM49.322 9.58533H45.5796L44.8461 11.5962H42.3713C40.2908 11.5962 39.3681 9.53936 39.4129 7.04498C39.4764 3.34343 41.3318 2.57383 42.1851 2.57383H44.6338V4.53528H43.4744C42.2284 4.53528 41.2567 4.68852 41.2567 6.7998V7.45362C41.2654 9.04218 41.9714 9.41847 42.4233 9.52914C42.5345 9.55979 42.7395 9.57171 42.8146 9.5649L43.626 9.55979L46.2105 2.57894H48.6939L51.892 11.0377V2.57383H54.6628L57.8277 8.81403V2.57383H59.7032V11.5962H57.1447L53.7676 4.9967V11.5962H50.0656L49.322 9.58533V9.58533Z" fill="#9E9E9E"/>
<path d="M30.0636 22.1729H32.4012C33.1679 22.1729 33.4408 21.6485 33.4408 21.0458C33.4408 20.6031 33.1939 20.0123 32.4084 20.0123H30.0636V22.1729ZM20.9876 19.9918H16.7326V21.6792H20.8678V23.3886H16.7326V25.173H21.0569L23.1216 22.4539L21.2951 20.0004L20.9876 19.9918ZM38.0986 22.0538H40.4362C41.2029 22.0538 41.4758 21.6502 41.4758 21.0458C41.4758 20.6031 41.2289 20.0123 40.4434 20.0123H38.0986V22.0538V22.0538ZM30.4376 6.56308H32.7751C33.5433 6.56308 33.8147 6.16126 33.8147 5.55682C33.8147 5.11583 33.5678 4.5199 32.7824 4.5199H30.4376V6.56308V6.56308ZM6.18821 7.64085H3.90405L5.02448 4.48926L6.18821 7.64085ZM47.4302 4.49437L46.3126 7.64426H48.6055L47.4302 4.49437Z" fill="#CC5D5D"/>
</g>
<defs>
<clipPath id="clip0_1805_185">
<rect width="66" height="27.5" fill="white"/>
</clipPath>
</defs>
</svg>
