<svg width="40" height="21" viewBox="0 0 40 21" fill="none" xmlns="http://www.w3.org/2000/svg">
<path d="M1.24801 16.7111C1.06917 16.4223 0.830722 15.9609 0.683443 15.6192C-0.175686 13.6185 -0.214259 11.5473 0.508111 9.56073C1.30412 7.38038 2.826 5.7143 4.79323 4.86189C7.26542 3.79461 9.9971 4.00243 12.3676 5.4149C13.872 6.2814 14.938 7.6199 15.748 9.51494C15.8497 9.75798 15.9409 10.0151 16.032 10.237L1.24801 16.7111ZM6.18538 8.07781C4.42855 8.83512 3.52383 10.4906 3.71319 12.4279L11.1473 9.21201C9.86736 7.70444 8.20521 7.20426 6.18538 8.07781V8.07781ZM12.073 15.0732C12.0695 15.0732 12.0695 15.0768 12.0695 15.0768L11.9152 14.9711C11.4699 15.6932 10.7791 16.2814 9.90593 16.6618C8.24378 17.3874 6.70436 17.2007 5.59626 16.225L5.49456 16.38C5.49456 16.38 5.49457 16.3765 5.49106 16.3765L3.60448 19.212C4.07437 19.5396 4.57582 19.8143 5.10182 20.0362C7.18477 20.9063 9.31681 20.864 11.4173 19.9482C12.9357 19.286 14.1279 18.2786 14.9415 17L12.073 15.0732ZM21.1973 0.691406V16.4505L23.638 17.4438L22.2528 20.6914L19.5597 19.5642C18.9566 19.3001 18.5428 18.8985 18.2342 18.4441C17.9362 17.9827 17.7152 17.3452 17.7152 16.4927V0.691406H21.1973ZM27.5163 12.4385C27.5163 11.0965 28.1089 9.89183 29.0417 9.07464L26.538 6.27084C24.8408 7.77841 23.7712 9.97989 23.7712 12.4315C23.7677 14.8865 24.8372 17.0915 26.531 18.5991L29.0312 15.7953C28.1019 14.9746 27.5163 13.777 27.5163 12.4385V12.4385ZM31.9628 16.9084C31.4718 16.9084 30.9949 16.8238 30.5531 16.6759L29.3573 20.2441C30.1744 20.5188 31.0475 20.6703 31.9593 20.6703C35.9218 20.6738 39.2285 17.8489 39.9965 14.0975L36.3215 13.3437C35.9042 15.3832 34.1123 16.9119 31.9628 16.9084V16.9084ZM31.9733 4.20673C31.0651 4.20673 30.1919 4.35467 29.3748 4.62589L30.5601 8.19757C31.0054 8.04963 31.4788 7.96862 31.9698 7.96862C34.1229 7.97214 35.9183 9.50789 36.325 11.5509L40 10.8041C39.2461 7.04576 35.9393 4.21025 31.9733 4.20673V4.20673Z" fill="white"/>
</svg>
